<svg width="44" height="44" viewBox="0 0 44 44" fill="none" xmlns="http://www.w3.org/2000/svg">
<path d="M22 44C34.1503 44 44 34.1503 44 22C44 9.84974 34.1503 0 22 0C9.84974 0 0 9.84974 0 22C0 34.1503 9.84974 44 22 44Z" fill="#EAEEFC"/>
<path d="M26.576 27.412C26.576 30.9842 23.6802 33.88 20.108 33.88C16.5358 33.88 13.64 30.9842 13.64 27.412C13.64 23.8398 16.5358 20.944 20.108 20.944C23.6802 20.944 26.576 23.8398 26.576 27.412Z" fill="white"/>
<path d="M26.576 26.62C26.576 30.1922 23.6802 33.088 20.108 33.088C16.5358 33.088 13.64 30.1922 13.64 26.62C13.64 23.0478 16.5358 20.152 20.108 20.152C23.6802 20.152 26.576 23.0478 26.576 26.62Z" fill="#FFC000"/>
<path d="M33.528 24.244C33.528 27.8162 30.6322 30.712 27.06 30.712C23.4878 30.712 20.592 27.8162 20.592 24.244C20.592 20.6718 23.4878 17.776 27.06 17.776C30.6322 17.776 33.528 20.6718 33.528 24.244Z" fill="white"/>
<path d="M34.056 23.452C34.056 27.0242 31.1602 29.92 27.588 29.92C24.0158 29.92 21.12 27.0242 21.12 23.452C21.12 19.8798 24.0158 16.984 27.588 16.984C31.1602 16.984 34.056 19.8798 34.056 23.452Z" fill="#2195D4"/>
<path d="M11 20.636C11 24.2082 13.8958 27.104 17.468 27.104C21.0402 27.104 23.936 24.2082 23.936 20.636C23.936 17.0638 21.0402 14.168 17.468 14.168C13.8958 14.168 11 17.0638 11 20.636Z" fill="white"/>
<path d="M10.472 19.844C10.472 23.4162 13.3678 26.312 16.94 26.312C20.5122 26.312 23.408 23.4162 23.408 19.844C23.408 16.2718 20.5122 13.376 16.94 13.376C13.3678 13.376 10.472 16.2718 10.472 19.844Z" fill="#2195D4"/>
<path d="M30.096 17.38C30.096 20.9522 27.2002 23.848 23.628 23.848C20.0558 23.848 17.16 20.9522 17.16 17.38C17.16 13.8078 20.0558 10.912 23.628 10.912C27.2002 10.912 30.096 13.8078 30.096 17.38Z" fill="white"/>
<path d="M30.096 16.588C30.096 20.1602 27.2002 23.056 23.628 23.056C20.0558 23.056 17.16 20.1602 17.16 16.588C17.16 13.0158 20.0558 10.12 23.628 10.12C27.2002 10.12 30.096 13.0158 30.096 16.588Z" fill="#9DC516"/>
<path fill-rule="evenodd" clip-rule="evenodd" d="M30.0959 16.9358V16.4561C30.0959 16.4561 30.6894 16.2571 31.5249 16.0789C32.2724 15.9194 33.0202 15.8108 34.2079 15.7196C34.7358 15.679 35.5966 15.6987 35.8895 15.8471C36.1801 15.9944 36.4848 16.2263 36.6525 16.5924C37.0454 17.4499 36.6819 18.3969 36.1413 19.2012C35.5742 20.0449 34.6648 20.9594 33.519 21.8916C31.2189 23.7629 27.8367 25.8092 23.9173 27.6047C19.9979 29.4001 16.2393 30.6249 13.3199 31.1445C11.8657 31.4033 10.5793 31.4946 9.57009 31.3731C8.60788 31.2572 7.6534 30.9139 7.26057 30.0564C7.03786 29.5703 7.06236 29.0483 7.21326 28.5621C7.36246 28.0814 7.6292 27.5793 8.01321 27.1109C9.50585 25.2907 10.4284 24.7602 11.7896 23.7445L12.0119 24.1121C10.7833 25.3474 9.90423 26.1696 9.11583 27.4918C8.66903 28.241 8.5866 28.5897 8.50351 28.8575C8.41646 29.2097 8.5078 29.493 8.55957 29.5613C8.72602 29.7808 8.87912 29.8717 9.73844 29.9752C10.5508 30.073 11.6822 30.0059 13.0733 29.7582C15.8448 29.265 19.4874 28.0853 23.3309 26.3246C27.1744 24.5639 30.4468 22.576 32.6304 20.7994C33.7264 19.9077 34.5162 19.0948 34.9727 18.4157C35.4483 17.7081 35.4008 17.5203 35.4002 17.3003C35.4002 17.3003 35.3944 17.101 35.2675 17.0367C35.1406 16.9724 35.0049 16.9109 34.7391 16.8621C34.2084 16.7648 33.4626 16.7336 32.7587 16.7355C32.0547 16.7374 31.4692 16.771 30.9549 16.8284C30.6985 16.857 30.5151 16.8736 30.2071 16.9184C30.0572 16.9402 30.0959 16.9358 30.0959 16.9358Z" fill="#343333"/>
</svg>
