<svg width="44" height="44" viewBox="0 0 44 44" fill="none" xmlns="http://www.w3.org/2000/svg">
<path fill-rule="evenodd" clip-rule="evenodd" d="M22 42.24C33.1782 42.24 42.24 33.1782 42.24 22C42.24 10.8218 33.1782 1.76 22 1.76C10.8218 1.76 1.76 10.8218 1.76 22C1.76 33.1782 10.8218 42.24 22 42.24ZM22 44C34.1502 44 44 34.1502 44 22C44 9.84975 34.1502 0 22 0C9.84975 0 0 9.84975 0 22C0 34.1502 9.84975 44 22 44ZM30.58 24.024C30.8616 24.376 31.2136 24.8424 31.636 25.4232C32.076 25.9864 32.5248 26.62 32.9824 27.324C33.44 28.0104 33.8888 28.732 34.3288 29.4888C34.7864 30.2456 35.1736 30.976 35.4904 31.68H32.692C32.34 31.0112 31.9528 30.3336 31.5304 29.6472C31.1256 28.9608 30.712 28.3096 30.2896 27.6936C29.8672 27.06 29.4448 26.4704 29.0224 25.9248C28.6176 25.3792 28.248 24.904 27.9136 24.4992C27.6848 24.5168 27.4472 24.5256 27.2008 24.5256H26.488H24.1912V31.68H21.6304V28.5163C22.0615 27.9661 22.4223 27.3487 22.7128 26.664C23.2056 25.4848 23.452 24.1032 23.452 22.5192C23.452 20.9352 23.2056 19.5624 22.7128 18.4008C22.4223 17.7057 22.0615 17.0841 21.6304 16.5357V13.6488C22.352 13.4728 23.1528 13.3584 24.0328 13.3056C24.9304 13.2352 25.7488 13.2 26.488 13.2C29.0576 13.2 31.0112 13.684 32.3488 14.652C33.704 15.62 34.3816 17.0632 34.3816 18.9816C34.3816 20.196 34.056 21.2344 33.4048 22.0968C32.7712 22.9592 31.8296 23.6016 30.58 24.024ZM21.6304 28.5163V16.5357C21.3301 16.1538 20.9957 15.8075 20.6272 15.4968C19.7296 14.7224 18.656 14.1504 17.4064 13.7808C16.1568 13.3936 14.784 13.2 13.288 13.2C12.5488 13.2 11.7304 13.2352 10.8328 13.3056C9.9528 13.3584 9.152 13.4728 8.4304 13.6488V31.3896C9.152 31.5656 9.9528 31.68 10.8328 31.7328C11.7304 31.8032 12.5488 31.8384 13.288 31.8384C14.784 31.8384 16.1568 31.6536 17.4064 31.284C18.656 30.8968 19.7296 30.3248 20.6272 29.568C20.9957 29.2501 21.3301 28.8995 21.6304 28.5163ZM26.6992 15.444C25.608 15.444 24.772 15.4704 24.1912 15.5232V22.4136H26.0128C26.8928 22.4136 27.6848 22.3696 28.3888 22.2816C29.0928 22.1936 29.6824 22.0264 30.1576 21.78C30.6504 21.5336 31.0288 21.1904 31.2928 20.7504C31.5568 20.2928 31.6888 19.6944 31.6888 18.9552C31.6888 18.2688 31.5568 17.6968 31.2928 17.2392C31.0288 16.7816 30.668 16.4208 30.2104 16.1568C29.7704 15.8928 29.2424 15.708 28.6264 15.6024C28.028 15.4968 27.3856 15.444 26.6992 15.444ZM18.9376 27.7464C17.7408 28.9784 15.928 29.5944 13.4992 29.5944C12.7776 29.5944 12.2144 29.5856 11.8096 29.568C11.4224 29.5504 11.1496 29.5328 10.9912 29.5152V15.5232C11.1496 15.5056 11.4224 15.488 11.8096 15.4704C12.2144 15.4528 12.7776 15.444 13.4992 15.444C15.928 15.444 17.7408 16.0688 18.9376 17.3184C20.1344 18.5504 20.7328 20.284 20.7328 22.5192C20.7328 24.7544 20.1344 26.4968 18.9376 27.7464Z" fill="#3664F7"/>
</svg>
