<svg width="16" height="18" viewBox="0 0 16 18" fill="none" xmlns="http://www.w3.org/2000/svg">
<path fill-rule="evenodd" clip-rule="evenodd" d="M1.72039 11.8869C2.50179 11.1055 3.5616 10.6665 4.66667 10.6665H11.3333C12.4384 10.6665 13.4982 11.1055 14.2796 11.8869C15.061 12.6683 15.5 13.7281 15.5 14.8332V16.4998C15.5 16.9601 15.1269 17.3332 14.6667 17.3332C14.2064 17.3332 13.8333 16.9601 13.8333 16.4998V14.8332C13.8333 14.1701 13.5699 13.5342 13.1011 13.0654C12.6323 12.5966 11.9964 12.3332 11.3333 12.3332H4.66667C4.00363 12.3332 3.36774 12.5966 2.8989 13.0654C2.43006 13.5342 2.16667 14.1701 2.16667 14.8332V16.4998C2.16667 16.9601 1.79357 17.3332 1.33333 17.3332C0.873096 17.3332 0.5 16.9601 0.5 16.4998V14.8332C0.5 13.7281 0.938987 12.6683 1.72039 11.8869Z" />
<path fill-rule="evenodd" clip-rule="evenodd" d="M8 2.33317C6.61929 2.33317 5.5 3.45246 5.5 4.83317C5.5 6.21388 6.61929 7.33317 8 7.33317C9.38071 7.33317 10.5 6.21388 10.5 4.83317C10.5 3.45246 9.38071 2.33317 8 2.33317ZM3.83333 4.83317C3.83333 2.53198 5.69881 0.666504 8 0.666504C10.3012 0.666504 12.1667 2.53198 12.1667 4.83317C12.1667 7.13436 10.3012 8.99984 8 8.99984C5.69881 8.99984 3.83333 7.13436 3.83333 4.83317Z" />
</svg>
