<svg width="10" height="10" viewBox="0 0 10 10" fill="none" xmlns="http://www.w3.org/2000/svg">
<path d="M9.0835 4.41678H2.16516L4.28266 1.87344C4.38168 1.75432 4.42931 1.60074 4.41509 1.44649C4.40087 1.29224 4.32596 1.14996 4.20683 1.05094C4.0877 0.951929 3.93412 0.904293 3.77987 0.918515C3.62562 0.932736 3.48334 1.00765 3.38433 1.12678L0.467663 4.62678C0.44804 4.65462 0.430492 4.68386 0.415163 4.71428C0.415163 4.74344 0.415163 4.76094 0.37433 4.79011C0.347889 4.85699 0.334045 4.92819 0.333496 5.00011C0.334045 5.07203 0.347889 5.14323 0.37433 5.21011C0.37433 5.23928 0.374329 5.25678 0.415163 5.28594C0.430492 5.31636 0.44804 5.3456 0.467663 5.37344L3.38433 8.87344C3.43918 8.93929 3.50786 8.99225 3.58549 9.02854C3.66312 9.06484 3.7478 9.08358 3.8335 9.08344C3.96979 9.08371 4.10188 9.03624 4.20683 8.94928C4.2659 8.90031 4.31472 8.84016 4.35051 8.77229C4.3863 8.70443 4.40835 8.63016 4.41539 8.55376C4.42244 8.47736 4.41434 8.40032 4.39156 8.32705C4.36879 8.25378 4.33178 8.18572 4.28266 8.12678L2.16516 5.58344H9.0835C9.2382 5.58344 9.38658 5.52199 9.49597 5.41259C9.60537 5.30319 9.66683 5.15482 9.66683 5.00011C9.66683 4.8454 9.60537 4.69703 9.49597 4.58763C9.38658 4.47824 9.2382 4.41678 9.0835 4.41678Z"/>
</svg>
