<svg width="16" height="16" viewBox="0 0 16 16" fill="none" xmlns="http://www.w3.org/2000/svg">
<path d="M0 0H16V16H0V0Z" fill="white"/>
<path d="M14.2222 0H1.77778C0.8 0 0 0.8 0 1.77778V14.2222C0 15.2 0.8 16 1.77778 16H14.2222C15.2 16 16 15.2 16 14.2222V1.77778C16 0.8 15.2 0 14.2222 0ZM6.85333 11.8133C6.50667 12.16 5.94667 12.16 5.6 11.8133L2.40889 8.62222C2.06222 8.27556 2.06222 7.71556 2.40889 7.36889C2.75556 7.02222 3.31556 7.02222 3.66222 7.36889L6.22222 9.92889L12.3378 3.81333C12.6844 3.46667 13.2444 3.46667 13.5911 3.81333C13.9378 4.16 13.9378 4.72 13.5911 5.06667L6.85333 11.8133Z"/>
</svg>
