<svg width="10" height="10" viewBox="0 0 10 10" fill="none" xmlns="http://www.w3.org/2000/svg">
<path fill-rule="evenodd" clip-rule="evenodd" d="M9.80886 0.191139C9.7483 0.130543 9.6764 0.0824734 9.59726 0.0496769C9.51812 0.0168805 9.43329 0 9.34762 0C9.26195 0 9.17712 0.0168805 9.09798 0.0496769C9.01884 0.0824734 8.94694 0.130543 8.88638 0.191139L4.99996 4.07756L1.11353 0.191139C1.05296 0.130568 0.981055 0.0825202 0.901915 0.0497394C0.822775 0.0169586 0.737954 8.6571e-05 0.652293 8.65703e-05C0.566633 8.65697e-05 0.481811 0.0169586 0.402671 0.0497394C0.323532 0.0825202 0.251623 0.130568 0.191052 0.191139C0.130481 0.25171 0.0824337 0.323618 0.0496529 0.402758C0.0168721 0.481898 -6.38219e-10 0.566719 0 0.65238C6.3822e-10 0.73804 0.0168721 0.822862 0.0496529 0.902002C0.0824337 0.981142 0.130481 1.05305 0.191052 1.11362L4.07748 5.00004L0.191052 8.88647C0.0687236 9.00879 1.29558e-08 9.17471 1.29558e-08 9.34771C1.29558e-08 9.52071 0.0687236 9.68662 0.191052 9.80895C0.313381 9.93128 0.479294 10 0.652293 10C0.825292 10 0.991206 9.93128 1.11353 9.80895L4.99996 5.92252L8.88638 9.80895C8.94695 9.86952 9.01886 9.91757 9.098 9.95035C9.17714 9.98313 9.26196 10 9.34762 10C9.43328 10 9.5181 9.98313 9.59724 9.95035C9.67638 9.91757 9.74829 9.86952 9.80886 9.80895C9.86943 9.74838 9.91748 9.67647 9.95026 9.59733C9.98304 9.51819 9.99991 9.43337 9.99991 9.34771C9.99991 9.26205 9.98304 9.17723 9.95026 9.09808C9.91748 9.01894 9.86943 8.94704 9.80886 8.88647L5.92244 5.00004L9.80886 1.11362C9.86946 1.05306 9.91753 0.98116 9.95032 0.902018C9.98312 0.822877 10 0.738048 10 0.65238C10 0.566712 9.98312 0.481883 9.95032 0.402741C9.91753 0.3236 9.86946 0.251696 9.80886 0.191139Z"/>
</svg>
