<svg width="20" height="17" viewBox="0 0 20 17" fill="none" xmlns="http://www.w3.org/2000/svg">
<path d="M9.99967 3.83333C12.2997 3.83333 14.1663 5.7 14.1663 8C14.1663 8.54167 14.058 9.05 13.8663 9.525L16.2997 11.9583C17.558 10.9083 18.5497 9.55 19.158 8C17.7163 4.34167 14.158 1.75 9.99134 1.75C8.82467 1.75 7.70801 1.95833 6.67467 2.33333L8.47467 4.13333C8.94967 3.94167 9.45801 3.83333 9.99967 3.83333ZM1.66634 1.55833L3.56634 3.45833L3.94967 3.84167C2.56634 4.91667 1.48301 6.35 0.833008 8C2.27467 11.6583 5.83301 14.25 9.99967 14.25C11.2913 14.25 12.5247 14 13.6497 13.55L13.9997 13.9L16.4413 16.3333L17.4997 15.275L2.72467 0.5L1.66634 1.55833ZM6.27467 6.16667L7.56634 7.45833C7.52467 7.63333 7.49967 7.81667 7.49967 8C7.49967 9.38333 8.61634 10.5 9.99967 10.5C10.183 10.5 10.3663 10.475 10.5413 10.4333L11.833 11.725C11.2747 12 10.658 12.1667 9.99967 12.1667C7.69967 12.1667 5.83301 10.3 5.83301 8C5.83301 7.34167 5.99967 6.725 6.27467 6.16667ZM9.86634 5.51667L12.4913 8.14167L12.508 8.00833C12.508 6.625 11.3913 5.50833 10.008 5.50833L9.86634 5.51667Z"/>
</svg>
