<svg width="20" height="20" viewBox="0 0 20 20" fill="none" xmlns="http://www.w3.org/2000/svg">
<path d="M10 1C5.02975 1 1 5.02975 1 10C1 14.9703 5.02975 19 10 19C14.9703 19 19 14.9703 19 10C19 5.02975 14.9703 1 10 1ZM8.875 8.875C8.875 8.57663 8.99353 8.29048 9.2045 8.0795C9.41548 7.86853 9.70163 7.75 10 7.75C10.2984 7.75 10.5845 7.86853 10.7955 8.0795C11.0065 8.29048 11.125 8.57663 11.125 8.875V14.5C11.125 14.7984 11.0065 15.0845 10.7955 15.2955C10.5845 15.5065 10.2984 15.625 10 15.625C9.70163 15.625 9.41548 15.5065 9.2045 15.2955C8.99353 15.0845 8.875 14.7984 8.875 14.5V8.875ZM10 6.643C9.85223 6.64296 9.70591 6.61382 9.5694 6.55724C9.43288 6.50065 9.30885 6.41773 9.20439 6.31321C9.09992 6.2087 9.01707 6.08463 8.96055 5.94809C8.90403 5.81155 8.87496 5.66521 8.875 5.51744C8.87504 5.36966 8.90418 5.22334 8.96076 5.08683C9.01735 4.95032 9.10027 4.82629 9.20479 4.72183C9.3093 4.61736 9.43338 4.5345 9.56991 4.47799C9.70645 4.42147 9.85279 4.3924 10.0006 4.39244C10.299 4.39251 10.5852 4.51114 10.7962 4.72222C11.0072 4.93331 11.1256 5.21956 11.1256 5.518C11.1255 5.81644 11.0069 6.10263 10.7958 6.31361C10.5847 6.52459 10.2984 6.64307 10 6.643Z"/>
</svg>
