<svg width="20" height="20" viewBox="0 0 20 20" fill="none" xmlns="http://www.w3.org/2000/svg">
<path d="M8.33366 12.4997H5.83366C4.41699 12.4997 3.33366 11.4163 3.33366 9.99967C3.33366 8.58301 4.41699 7.49967 5.83366 7.49967H8.33366C8.83366 7.49967 9.16699 7.16634 9.16699 6.66634C9.16699 6.16634 8.83366 5.83301 8.33366 5.83301H5.83366C3.50033 5.83301 1.66699 7.66634 1.66699 9.99967C1.66699 12.333 3.50033 14.1663 5.83366 14.1663H8.33366C8.83366 14.1663 9.16699 13.833 9.16699 13.333C9.16699 12.833 8.83366 12.4997 8.33366 12.4997ZM14.167 5.83301H11.667C11.167 5.83301 10.8337 6.16634 10.8337 6.66634C10.8337 7.16634 11.167 7.49967 11.667 7.49967H14.167C15.5837 7.49967 16.667 8.58301 16.667 9.99967C16.667 11.4163 15.5837 12.4997 14.167 12.4997H11.667C11.167 12.4997 10.8337 12.833 10.8337 13.333C10.8337 13.833 11.167 14.1663 11.667 14.1663H14.167C16.5003 14.1663 18.3337 12.333 18.3337 9.99967C18.3337 7.66634 16.5003 5.83301 14.167 5.83301ZM6.66699 9.99967C6.66699 10.4997 7.00033 10.833 7.50033 10.833H12.5003C13.0003 10.833 13.3337 10.4997 13.3337 9.99967C13.3337 9.49967 13.0003 9.16634 12.5003 9.16634H7.50033C7.00033 9.16634 6.66699 9.49967 6.66699 9.99967Z" fill="white"/>
</svg>
