<svg width="10" height="10" viewBox="0 0 10 10" fill="none" xmlns="http://www.w3.org/2000/svg">
<path d="M0.916505 5.58322L7.83484 5.58322L5.71734 8.12656C5.61832 8.24568 5.57069 8.39926 5.58491 8.55351C5.59913 8.70776 5.67404 8.85004 5.79317 8.94906C5.9123 9.04807 6.06588 9.09571 6.22013 9.08149C6.37438 9.06726 6.51666 8.99235 6.61567 8.87322L9.53234 5.37322C9.55196 5.34538 9.56951 5.31614 9.58484 5.28572C9.58484 5.25656 9.58484 5.23906 9.62567 5.20989C9.65211 5.14301 9.66595 5.07181 9.6665 4.99989C9.66595 4.92797 9.65211 4.85677 9.62567 4.78989C9.62567 4.76072 9.62567 4.74322 9.58484 4.71406C9.56951 4.68364 9.55196 4.6544 9.53234 4.62656L6.61567 1.12656C6.56082 1.06071 6.49214 1.00775 6.41451 0.971457C6.33688 0.935162 6.2522 0.916417 6.1665 0.916556C6.03021 0.91629 5.89812 0.963758 5.79317 1.05072C5.7341 1.09969 5.68528 1.15984 5.64949 1.22771C5.6137 1.29557 5.59165 1.36984 5.58461 1.44624C5.57756 1.52264 5.58566 1.59968 5.60844 1.67295C5.63121 1.74622 5.66822 1.81428 5.71734 1.87322L7.83484 4.41656L0.916505 4.41656C0.761795 4.41656 0.613422 4.47801 0.504025 4.58741C0.394629 4.69681 0.333172 4.84518 0.333172 4.99989C0.333172 5.1546 0.394629 5.30297 0.504025 5.41237C0.613422 5.52176 0.761795 5.58322 0.916505 5.58322Z"/>
</svg>
