<svg width="14" height="14" viewBox="0 0 14 14" fill="none" xmlns="http://www.w3.org/2000/svg">
<path d="M6.99995 0.700195C3.52235 0.700195 0.699951 3.5226 0.699951 7.0002C0.699951 10.4778 3.52235 13.3002 6.99995 13.3002C10.4776 13.3002 13.3 10.4778 13.3 7.0002C13.3 3.5226 10.4776 0.700195 6.99995 0.700195ZM9.51995 7.6302H7.62995V9.5202C7.62995 9.8667 7.34645 10.1502 6.99995 10.1502C6.65345 10.1502 6.36995 9.8667 6.36995 9.5202V7.6302H4.47995C4.13345 7.6302 3.84995 7.3467 3.84995 7.0002C3.84995 6.6537 4.13345 6.3702 4.47995 6.3702H6.36995V4.4802C6.36995 4.1337 6.65345 3.8502 6.99995 3.8502C7.34645 3.8502 7.62995 4.1337 7.62995 4.4802V6.3702H9.51995C9.86645 6.3702 10.15 6.6537 10.15 7.0002C10.15 7.3467 9.86645 7.6302 9.51995 7.6302Z"/>
</svg>
