<svg width="14" height="14" viewBox="0 0 20 20" fill="none" xmlns="http://www.w3.org/2000/svg">
<path d="M17.3427 11.281C17.1192 11.2113 16.8773 11.2328 16.6696 11.3409C16.462 11.4489 16.3054 11.6347 16.2341 11.8578C15.8151 13.1397 14.9983 14.2544 13.9025 15.0397C12.8067 15.825 11.4891 16.2399 10.1414 16.2241C8.47438 16.2431 6.86791 15.5998 5.67423 14.4352C4.48055 13.2707 3.79709 11.68 3.77372 10.0119C3.79709 8.34384 4.48055 6.75313 5.67423 5.58858C6.86791 4.42404 8.47438 3.78071 10.1414 3.79967C11.6469 3.79603 13.1061 4.32044 14.2653 5.28173L12.3408 4.96225C12.2254 4.94326 12.1075 4.94727 11.9937 4.97405C11.8799 5.00084 11.7725 5.04987 11.6778 5.11832C11.583 5.18677 11.5027 5.2733 11.4414 5.37293C11.3802 5.47256 11.3392 5.58332 11.3209 5.69884C11.3019 5.81426 11.3059 5.93229 11.3327 6.04615C11.3595 6.16001 11.4085 6.26745 11.4769 6.3623C11.5453 6.45714 11.6317 6.53752 11.7313 6.59881C11.8309 6.6601 11.9415 6.70109 12.057 6.71942L15.8173 7.34064H15.968C16.0709 7.34052 16.1729 7.3225 16.2696 7.28739C16.302 7.27505 16.3321 7.25702 16.3582 7.23415C16.4218 7.21048 16.4816 7.17759 16.5356 7.13653L16.6154 7.0389C16.6154 6.99453 16.6953 6.95903 16.7307 6.90579C16.7662 6.85254 16.7307 6.81704 16.7751 6.78154C16.7996 6.72986 16.8203 6.67647 16.8372 6.6218L17.5023 3.07195C17.5244 2.95541 17.5234 2.83565 17.4993 2.7195C17.4751 2.60336 17.4284 2.4931 17.3617 2.39504C17.295 2.29697 17.2096 2.21301 17.1105 2.14796C17.0114 2.0829 16.9004 2.03802 16.7839 2.01588C16.6675 1.99373 16.5478 1.99476 16.4317 2.0189C16.3157 2.04304 16.2055 2.08983 16.1075 2.15658C15.9096 2.29139 15.7733 2.49935 15.7286 2.73472L15.4891 4.02154C14.0045 2.73405 12.1059 2.02513 10.1414 2.02475C8.00398 2.00582 5.94638 2.83615 4.42007 4.33355C2.89375 5.83095 2.0234 7.8731 2 10.0119C2.0234 12.1507 2.89375 14.1928 4.42007 15.6902C5.94638 17.1876 8.00398 18.018 10.1414 17.999C11.8735 18.0257 13.5685 17.4951 14.9766 16.4854C16.3848 15.4756 17.4318 14.0402 17.9635 12.3903C17.9971 12.2767 18.0077 12.1575 17.9945 12.0397C17.9814 11.9219 17.9448 11.808 17.8869 11.7046C17.8291 11.6012 17.7511 11.5104 17.6576 11.4377C17.5641 11.3649 17.4571 11.3116 17.3427 11.281Z" />
</svg>
