<svg width="20" height="20" viewBox="0 0 20 20" fill="none" xmlns="http://www.w3.org/2000/svg">
<path d="M11.4218 6.36288H5.25295L7.52069 4.09222C7.63179 3.96722 7.69097 3.80451 7.68615 3.63735C7.68133 3.47018 7.61287 3.31116 7.49475 3.19276C7.37664 3.07437 7.21778 3.00553 7.05062 3.00032C6.88347 2.9951 6.72063 3.0539 6.59536 3.1647L3.19229 6.56778C3.13133 6.62872 3.08297 6.70107 3.04998 6.78071C3.01698 6.86034 3 6.9457 3 7.0319C3 7.1181 3.01698 7.20345 3.04998 7.28309C3.08297 7.36272 3.13133 7.43508 3.19229 7.49602L6.59536 10.8984C6.72083 11.0069 6.88274 11.0639 7.04852 11.0578C7.21429 11.0518 7.37163 10.9832 7.48889 10.8659C7.60614 10.7485 7.6746 10.5911 7.6805 10.4253C7.6864 10.2596 7.6293 10.0977 7.52069 9.97231L5.22815 7.6754H11.4218C12.5088 7.6349 13.5677 8.02633 14.367 8.76415C15.1663 9.50196 15.641 10.5262 15.6875 11.613C15.641 12.6997 15.1663 13.724 14.367 14.4618C13.5677 15.1996 12.5088 15.591 11.4218 15.5505H10.7655C10.5915 15.5505 10.4246 15.6197 10.3015 15.7427C10.1784 15.8658 10.1093 16.0327 10.1093 16.2068C10.1093 16.3808 10.1784 16.5477 10.3015 16.6708C10.4246 16.7939 10.5915 16.863 10.7655 16.863H11.4218C12.8569 16.9035 14.2496 16.3738 15.295 15.3899C16.3405 14.4059 16.9535 13.0479 17 11.613C16.9535 10.1781 16.3405 8.82 15.295 7.83605C14.2496 6.8521 12.8569 6.3224 11.4218 6.36288Z"/>
</svg>
