<svg width="16" height="16" viewBox="0 0 16 16" fill="none" xmlns="http://www.w3.org/2000/svg">
<path d="M1.88659 10.9924C2.99501 12.1021 4.47108 12.7682 6.03671 12.8654C7.60235 12.9625 9.14948 12.4839 10.3866 11.5198L14.6435 15.7754C14.7944 15.9211 14.9966 16.0018 15.2065 16C15.4164 15.9981 15.6171 15.914 15.7656 15.7656C15.914 15.6173 15.9981 15.4165 16 15.2067C16.0018 14.9969 15.9211 14.7948 15.7753 14.6439L11.5185 10.3883C12.5257 9.09605 13.0019 7.46839 12.8499 5.83723C12.698 4.20608 11.9294 2.6943 10.7008 1.61022C9.47223 0.526132 7.87627 -0.0486034 6.2384 0.00322354C4.60053 0.0550504 3.04412 0.729536 1.88659 1.88912C1.28849 2.48675 0.814029 3.19632 0.490321 3.97731C0.166613 4.7583 0 5.5954 0 6.44078C0 7.28617 0.166613 8.12326 0.490321 8.90425C0.814029 9.68524 1.28849 10.3948 1.88659 10.9924ZM3.01844 3.02224C3.80974 2.23118 4.85094 1.73887 5.96462 1.62921C7.07829 1.51954 8.19556 1.7993 9.12605 2.42081C10.0565 3.04232 10.7427 3.96714 11.0676 5.03769C11.3925 6.10824 11.336 7.25829 10.9079 8.2919C10.4797 9.32551 9.70627 10.1787 8.71939 10.7062C7.7325 11.2337 6.59321 11.4027 5.49562 11.1846C4.39803 10.9664 3.41005 10.3746 2.70001 9.5099C1.98997 8.6452 1.6018 7.56112 1.60163 6.44238C1.59943 5.80667 1.72354 5.17684 1.96675 4.58946C2.20997 4.00207 2.56744 3.46882 3.01844 3.02064V3.02224Z" fill="#374151"/>
</svg>
