<svg width="12" height="16" viewBox="0 0 12 16" fill="none" xmlns="http://www.w3.org/2000/svg">
<path d="M9.33336 12.1751V7.16674C9.33336 6.70841 8.95836 6.33341 8.50003 6.33341C8.04169 6.33341 7.66669 6.70841 7.66669 7.16674V12.1751H6.17503C5.80003 12.1751 5.61669 12.6251 5.88336 12.8834L8.20836 15.2001C8.37503 15.3584 8.63336 15.3584 8.80003 15.2001L11.125 12.8834C11.3917 12.6251 11.2 12.1751 10.8334 12.1751H9.33336ZM3.20836 0.791739L0.883359 3.11674C0.616692 3.37507 0.800025 3.82507 1.17503 3.82507H2.66669V8.83341C2.66669 9.29174 3.04169 9.66674 3.50003 9.66674C3.95836 9.66674 4.33336 9.29174 4.33336 8.83341V3.82507H5.82503C6.20003 3.82507 6.38336 3.37507 6.11669 3.11674L3.79169 0.791739C3.63336 0.633406 3.36669 0.633406 3.20836 0.791739Z"/>
</svg>
