<svg width="16" height="16" viewBox="0 0 16 16" fill="none" xmlns="http://www.w3.org/2000/svg">
<path fill-rule="evenodd" clip-rule="evenodd" d="M2.34314 2.34314C5.46734 -0.781051 10.5326 -0.781042 13.6569 2.34314L13.6569 2.34315C16.7805 5.46676 16.781 10.5307 13.6586 13.6551M12.5255 3.47452C10.2177 1.16673 6.58594 0.989846 4.07521 2.94384L13.0562 11.9248C15.0102 9.41401 14.8333 5.7823 12.5255 3.47452ZM13.655 13.6587C10.5306 16.781 5.46673 16.7804 2.34315 13.6569L2.34314 13.6569C-0.781042 10.5326 -0.781051 5.46734 2.34314 2.34314M13.655 13.6587C13.6556 13.6581 13.6563 13.6575 13.6569 13.6569C13.6572 13.6565 13.6575 13.6562 13.6579 13.6559M11.9248 13.0562L2.94384 4.07521C0.989846 6.58595 1.16673 10.2177 3.47452 12.5255C5.78229 14.8333 9.414 15.0102 11.9248 13.0562Z" fill="#EC4436"/>
</svg>
