<svg width="16" height="16" viewBox="0 0 16 16" fill="none" xmlns="http://www.w3.org/2000/svg">
<path fill-rule="evenodd" clip-rule="evenodd" d="M1.64952 7.2H4.81413C4.87589 5.46105 5.13741 3.87559 5.54398 2.65585C5.62111 2.42446 5.70505 2.20137 5.79615 1.98957C3.58768 2.79959 1.94978 4.79209 1.64952 7.2ZM8 0C3.58172 0 0 3.58172 0 8C0 12.4183 3.58173 16 8 16C12.4183 16 16 12.4183 16 8C16 3.58173 12.4183 0 8 0ZM7.2 2.7816C7.15318 2.89971 7.10701 3.02642 7.06188 3.16181C6.7178 4.19405 6.47637 5.6022 6.41521 7.2H7.2V2.7816ZM7.2 8.8H6.41521C6.47637 10.3978 6.7178 11.806 7.06188 12.8382C7.10701 12.9736 7.15318 13.1003 7.2 13.2184V8.8ZM10.2038 14.0104C12.4123 13.2004 14.0502 11.2079 14.3505 8.8H11.1859C11.1241 10.539 10.8626 12.1244 10.456 13.3442C10.3789 13.5755 10.2949 13.7986 10.2038 14.0104ZM9.58479 8.8H8.8V13.2184C8.84682 13.1003 8.89299 12.9736 8.93812 12.8382C9.2822 11.806 9.52363 10.3978 9.58479 8.8ZM9.58479 7.2H8.8V2.7816C8.84682 2.89971 8.89299 3.02642 8.93812 3.16181C9.2822 4.19405 9.52363 5.6022 9.58479 7.2ZM11.1859 7.2C11.1241 5.46105 10.8626 3.87559 10.456 2.65585C10.3789 2.42446 10.2949 2.20136 10.2038 1.98956C12.4123 2.79958 14.0502 4.79208 14.3505 7.2H11.1859ZM5.79615 14.0104C5.70505 13.7986 5.62111 13.5755 5.54398 13.3442C5.13741 12.1244 4.87589 10.539 4.81413 8.8H1.64951C1.94977 11.2079 3.58768 13.2004 5.79615 14.0104Z" fill="#67748E"/>
</svg>
