<svg width="16" height="16" viewBox="0 0 16 16" fill="none" xmlns="http://www.w3.org/2000/svg">
<path fill-rule="evenodd" clip-rule="evenodd" d="M0.837458 0.00151173C1.30761 -0.0257367 1.71742 0.318433 1.77183 0.78622L1.99594 2.71322C3.46146 1.05007 5.60756 2.26294e-05 8 2.26294e-05C12.0803 2.26294e-05 15.4459 3.05391 15.9381 7.00112C15.9989 7.48827 15.6532 7.93242 15.1661 7.99317C14.6789 8.05391 14.2348 7.70825 14.174 7.2211C13.7914 4.15267 11.1723 1.7778 8 1.7778C5.8865 1.7778 4.01776 2.83172 2.89282 4.44445H5.33333C5.82425 4.44445 6.22222 4.84242 6.22222 5.33334C6.22222 5.82426 5.82425 6.22223 5.33333 6.22223H0.888889C0.397969 6.22223 0 5.82426 0 5.33334V0.888909C0 0.417968 0.367305 0.0287602 0.837458 0.00151173ZM0.833911 8.00683C1.32106 7.94608 1.76521 8.29175 1.82596 8.77889C2.20859 11.8473 4.82763 14.2222 8 14.2222C10.1135 14.2222 11.9822 13.1683 13.1072 11.5555H10.6667C10.1757 11.5555 9.77778 11.1576 9.77778 10.6667C9.77778 10.1757 10.1757 9.77777 10.6667 9.77777H15.1111C15.602 9.77777 16 10.1757 16 10.6667V15.1111C16 15.582 15.6327 15.9712 15.1625 15.9985C14.6924 16.0257 14.2826 15.6816 14.2282 15.2138L14.0041 13.2868C12.5386 14.9499 10.3925 16 8 16C3.91971 16 0.554058 12.9461 0.0618449 8.99888C0.00109816 8.51173 0.346764 8.06758 0.833911 8.00683Z" fill="#323D69"/>
</svg>
