<svg width="16" height="16" viewBox="0 0 16 16" fill="none" xmlns="http://www.w3.org/2000/svg">
<path fill-rule="evenodd" clip-rule="evenodd" d="M1.55871 8C2.49643 10.6224 5.0273 12.5 8 12.5C10.9727 12.5 13.5035 10.6224 14.4413 8C13.5035 5.37758 10.9727 3.5 8 3.5C5.02731 3.5 2.49644 5.37757 1.55871 8ZM0.03487 7.77526C1.09834 4.42882 4.26119 2 8 2C11.7388 2 14.9016 4.42884 15.9651 7.77526C16.0116 7.92156 16.0116 8.07844 15.9651 8.22474C14.9016 11.5712 11.7388 14 8 14C4.26118 14 1.09832 11.5712 0.0348693 8.22474C-0.0116234 8.07843 -0.0116231 7.92156 0.03487 7.77526ZM7.99969 6.5C7.16144 6.5 6.48195 7.17155 6.48195 8C6.48195 8.82845 7.16144 9.5 7.99969 9.5C8.83788 9.5 9.5174 8.82844 9.5174 8C9.5174 7.17155 8.83788 6.5 7.99969 6.5ZM4.96424 8C4.96424 6.3431 6.32325 5 7.99969 5C9.67605 5 11.0351 6.34309 11.0351 8C11.0351 9.65691 9.67605 11 7.99969 11C6.32325 11 4.96424 9.6569 4.96424 8Z" fill="#3664F7"/>
</svg>
