<svg width="16" height="16" viewBox="0 0 16 16" fill="none" xmlns="http://www.w3.org/2000/svg">
<path fill-rule="evenodd" clip-rule="evenodd" d="M8 1.45455C4.38505 1.45455 1.45455 4.38505 1.45455 8C1.45455 11.615 4.38505 14.5455 8 14.5455C11.615 14.5455 14.5455 11.615 14.5455 8C14.5455 4.38505 11.615 1.45455 8 1.45455ZM0 8C0 3.58172 3.58172 0 8 0C12.4183 0 16 3.58172 16 8C16 12.4183 12.4183 16 8 16C3.58172 16 0 12.4183 0 8ZM8 4.36364C8.40166 4.36364 8.72727 4.68925 8.72727 5.09091V8C8.72727 8.40166 8.40166 8.72727 8 8.72727C7.59834 8.72727 7.27273 8.40166 7.27273 8V5.09091C7.27273 4.68925 7.59834 4.36364 8 4.36364ZM7.27273 10.9091C7.27273 10.5074 7.59834 10.1818 8 10.1818H8.00727C8.40894 10.1818 8.73455 10.5074 8.73455 10.9091C8.73455 11.3108 8.40894 11.6364 8.00727 11.6364H8C7.59834 11.6364 7.27273 11.3108 7.27273 10.9091Z" fill="#DF2231"/>
</svg>
