<svg width="16" height="16" viewBox="0 0 16 16" fill="none" xmlns="http://www.w3.org/2000/svg">
<path fill-rule="evenodd" clip-rule="evenodd" d="M0.633375 0.234315C0.929726 -0.0781049 1.41021 -0.0781049 1.70656 0.234315L4.01371 2.66655C5.19872 1.9864 6.55745 1.6 7.99998 1.6C11.7388 1.6 14.9017 4.19076 15.9651 7.76029C16.0116 7.91634 16.0116 8.08367 15.9651 8.23972C15.4698 9.90223 14.5201 11.3508 13.2701 12.4248L15.366 14.6343C15.6623 14.9467 15.6623 15.4533 15.366 15.7657C15.0696 16.0781 14.5891 16.0781 14.2928 15.7657L0.633375 1.36569C0.337023 1.05327 0.337023 0.546734 0.633375 0.234315ZM5.14368 3.85778L6.45782 5.24318C6.90968 4.96184 7.43708 4.8 7.99968 4.8C9.67613 4.8 11.0351 6.23265 11.0351 8C11.0351 8.5931 10.8816 9.14909 10.6147 9.62544L12.1901 11.2862C13.2122 10.4478 14.002 9.31033 14.4413 7.99999C13.5036 5.20276 10.9727 3.2 7.99998 3.2C6.9794 3.2 6.01225 3.43555 5.14368 3.85778ZM9.4661 8.41456C9.49958 8.2824 9.51739 8.14347 9.51739 8C9.51739 7.11631 8.83792 6.4 7.99968 6.4C7.86358 6.4 7.7318 6.41878 7.60644 6.45407L9.4661 8.41456ZM2.40301 4.93902C2.73721 5.20564 2.80311 5.70738 2.5502 6.0597C2.13086 6.64387 1.79437 7.29708 1.55871 8C2.49645 10.7972 5.02732 12.8 8.00006 12.8C8.43854 12.8 8.86668 12.7566 9.28101 12.6737C9.69277 12.5913 10.0899 12.8765 10.168 13.3106C10.2461 13.7446 9.97567 14.1633 9.56391 14.2457C9.05668 14.3471 8.53382 14.4 8.00006 14.4C4.2612 14.4 1.09833 11.8092 0.0348699 8.23972C-0.0116231 8.08367 -0.0116233 7.91634 0.0348693 7.76028C0.324688 6.7875 0.770129 5.88802 1.33997 5.09419C1.59287 4.74187 2.06882 4.6724 2.40301 4.93902Z" fill="#323D69"/>
</svg>
