<svg width="23" height="23" viewBox="0 0 23 23" fill="none" xmlns="http://www.w3.org/2000/svg">
<g clip-path="url(#clip0_1541_48941)">
<path d="M12.4871 1.7924L1.955 0.191984C1.46625 0.115317 0.967917 0.249484 0.594167 0.565734C0.220417 0.891567 0 1.36115 0 1.8499V22.042C0 22.5691 0.43125 23.0003 0.958333 23.0003H4.07292V17.9691C4.07292 17.0395 4.82042 16.292 5.75 16.292H8.14583C9.07542 16.292 9.82292 17.0395 9.82292 17.9691V23.0003H13.8958V3.45032C13.8958 2.62615 13.3017 1.92657 12.4871 1.7924ZM5.27083 14.1357H3.83333C3.43658 14.1357 3.11458 13.8137 3.11458 13.417C3.11458 13.0202 3.43658 12.6982 3.83333 12.6982H5.27083C5.66758 12.6982 5.98958 13.0202 5.98958 13.417C5.98958 13.8137 5.66758 14.1357 5.27083 14.1357ZM5.27083 11.2607H3.83333C3.43658 11.2607 3.11458 10.9387 3.11458 10.542C3.11458 10.1452 3.43658 9.82323 3.83333 9.82323H5.27083C5.66758 9.82323 5.98958 10.1452 5.98958 10.542C5.98958 10.9387 5.66758 11.2607 5.27083 11.2607ZM5.27083 8.38573H3.83333C3.43658 8.38573 3.11458 8.06373 3.11458 7.66698C3.11458 7.27023 3.43658 6.94823 3.83333 6.94823H5.27083C5.66758 6.94823 5.98958 7.27023 5.98958 7.66698C5.98958 8.06373 5.66758 8.38573 5.27083 8.38573ZM5.27083 5.51073H3.83333C3.43658 5.51073 3.11458 5.18873 3.11458 4.79198C3.11458 4.39523 3.43658 4.07323 3.83333 4.07323H5.27083C5.66758 4.07323 5.98958 4.39523 5.98958 4.79198C5.98958 5.18873 5.66758 5.51073 5.27083 5.51073ZM10.0625 14.1357H8.625C8.22825 14.1357 7.90625 13.8137 7.90625 13.417C7.90625 13.0202 8.22825 12.6982 8.625 12.6982H10.0625C10.4593 12.6982 10.7812 13.0202 10.7812 13.417C10.7812 13.8137 10.4593 14.1357 10.0625 14.1357ZM10.0625 11.2607H8.625C8.22825 11.2607 7.90625 10.9387 7.90625 10.542C7.90625 10.1452 8.22825 9.82323 8.625 9.82323H10.0625C10.4593 9.82323 10.7812 10.1452 10.7812 10.542C10.7812 10.9387 10.4593 11.2607 10.0625 11.2607ZM10.0625 8.38573H8.625C8.22825 8.38573 7.90625 8.06373 7.90625 7.66698C7.90625 7.27023 8.22825 6.94823 8.625 6.94823H10.0625C10.4593 6.94823 10.7812 7.27023 10.7812 7.66698C10.7812 8.06373 10.4593 8.38573 10.0625 8.38573ZM10.0625 5.51073H8.625C8.22825 5.51073 7.90625 5.18873 7.90625 4.79198C7.90625 4.39523 8.22825 4.07323 8.625 4.07323H10.0625C10.4593 4.07323 10.7812 4.39523 10.7812 4.79198C10.7812 5.18873 10.4593 5.51073 10.0625 5.51073Z" fill="#C2C3E8"/>
<path d="M21.6768 10.3898L14.8535 8.96094V22.9996H21.3222C22.247 22.9996 22.9993 22.2473 22.9993 21.3225V12.0286C22.9993 11.237 22.4598 10.5633 21.6768 10.3898ZM19.4056 20.1246H17.9681C17.5713 20.1246 17.2493 19.8026 17.2493 19.4058C17.2493 19.0091 17.5713 18.6871 17.9681 18.6871H19.4056C19.8023 18.6871 20.1243 19.0091 20.1243 19.4058C20.1243 19.8026 19.8023 20.1246 19.4056 20.1246ZM19.4056 17.2496H17.9681C17.5713 17.2496 17.2493 16.9276 17.2493 16.5308C17.2493 16.1341 17.5713 15.8121 17.9681 15.8121H19.4056C19.8023 15.8121 20.1243 16.1341 20.1243 16.5308C20.1243 16.9276 19.8023 17.2496 19.4056 17.2496ZM19.4056 14.3746H17.9681C17.5713 14.3746 17.2493 14.0526 17.2493 13.6558C17.2493 13.2591 17.5713 12.9371 17.9681 12.9371H19.4056C19.8023 12.9371 20.1243 13.2591 20.1243 13.6558C20.1243 14.0526 19.8023 14.3746 19.4056 14.3746Z" fill="#C2C3E8"/>
</g>
<defs>
<clipPath id="clip0_1541_48941">
<rect width="23" height="23" fill="white"/>
</clipPath>
</defs>
</svg>
