<svg width="20" height="20" viewBox="0 0 20 20" fill="none" xmlns="http://www.w3.org/2000/svg">
<path fill-rule="evenodd" clip-rule="evenodd" d="M8.66699 5.33333C8.66699 4.59697 9.26393 4 10.0003 4C10.7367 4 11.3337 4.59697 11.3337 5.33333C11.3337 6.0697 10.7367 6.66667 10.0003 6.66667C9.26393 6.66667 8.66699 6.0697 8.66699 5.33333ZM8.66699 10C8.66699 9.26361 9.26394 8.66667 10.0003 8.66667C10.7367 8.66667 11.3337 9.26361 11.3337 10C11.3337 10.7364 10.7367 11.3333 10.0003 11.3333C9.26394 11.3333 8.66699 10.7364 8.66699 10ZM8.66699 14.6667C8.66699 13.9303 9.26394 13.3333 10.0003 13.3333C10.7367 13.3333 11.3337 13.9303 11.3337 14.6667C11.3337 15.4031 10.7367 16 10.0003 16C9.26394 16 8.66699 15.4031 8.66699 14.6667Z" />
</svg>
