<svg width="22" height="22" viewBox="0 0 22 22" fill="none" xmlns="http://www.w3.org/2000/svg">
<path d="M15.583 6.41667H11.9163V8.15833H15.583C17.1505 8.15833 18.4247 9.4325 18.4247 11C18.4247 12.3108 17.5263 13.4108 16.3072 13.75L17.6455 15.07C19.1397 14.3092 20.1663 12.7875 20.1663 11C20.1663 9.78442 19.6835 8.61864 18.8239 7.75909C17.9644 6.89955 16.7986 6.41667 15.583 6.41667ZM14.6663 10.0833H12.6588L14.4922 11.9167H14.6663V10.0833ZM1.83301 3.91417L4.68384 6.765C3.01551 7.44333 1.83301 9.08417 1.83301 11C1.83301 12.2156 2.31589 13.3814 3.17544 14.2409C4.03498 15.1004 5.20077 15.5833 6.41634 15.5833H10.083V13.8417H6.41634C4.84884 13.8417 3.57467 12.5675 3.57467 11C3.57467 9.5425 4.68384 8.34167 6.10467 8.18583L8.00217 10.0833H7.33301V11.9167H9.83551L11.9163 13.9975V15.5833H13.5022L17.178 19.25L18.333 18.095L2.99717 2.75L1.83301 3.91417Z" fill="white"/>
</svg>
