<svg width="12" height="12" viewBox="0 0 12 12" fill="none" xmlns="http://www.w3.org/2000/svg">
<path fill-rule="evenodd" clip-rule="evenodd" d="M1.50039 7.90039C1.83176 7.90039 2.10039 8.16902 2.10039 8.50039V10.0004C2.10039 10.1065 2.14253 10.2082 2.21755 10.2832C2.29256 10.3582 2.3943 10.4004 2.50039 10.4004H9.50039C9.60648 10.4004 9.70822 10.3582 9.78323 10.2832C9.85825 10.2082 9.90039 10.1065 9.90039 10.0004V8.50039C9.90039 8.16902 10.169 7.90039 10.5004 7.90039C10.8318 7.90039 11.1004 8.16902 11.1004 8.50039V10.0004C11.1004 10.4247 10.9318 10.8317 10.6318 11.1318C10.3317 11.4318 9.92474 11.6004 9.50039 11.6004H2.50039C2.07604 11.6004 1.66908 11.4318 1.36902 11.1318C1.06896 10.8317 0.900391 10.4247 0.900391 10.0004V8.50039C0.900391 8.16902 1.16902 7.90039 1.50039 7.90039Z" />
<path fill-rule="evenodd" clip-rule="evenodd" d="M5.57613 1.07613C5.81044 0.841812 6.19034 0.841812 6.42466 1.07613L8.42466 3.07613C8.65897 3.31044 8.65897 3.69034 8.42466 3.92465C8.19034 4.15897 7.81044 4.15897 7.57613 3.92465L6.00039 2.34892L4.42465 3.92465C4.19034 4.15897 3.81044 4.15897 3.57613 3.92465C3.34181 3.69034 3.34181 3.31044 3.57613 3.07613L5.57613 1.07613Z"/>
<path fill-rule="evenodd" clip-rule="evenodd" d="M6.00039 1.90039C6.33176 1.90039 6.60039 2.16902 6.60039 2.50039V9.50039C6.60039 9.83176 6.33176 10.1004 6.00039 10.1004C5.66902 10.1004 5.40039 9.83176 5.40039 9.50039V2.50039C5.40039 2.16902 5.66902 1.90039 6.00039 1.90039Z"/>
</svg>
