<svg width="60" height="60" viewBox="0 0 60 60" fill="none" xmlns="http://www.w3.org/2000/svg">
<circle cx="30" cy="30" r="30" fill="#EAEEFC"/>
<path d="M24.9997 29.9997C28.2163 29.9997 30.833 27.383 30.833 24.1663C30.833 20.9497 28.2163 18.333 24.9997 18.333C21.783 18.333 19.1663 20.9497 19.1663 24.1663C19.1663 27.383 21.783 29.9997 24.9997 29.9997ZM24.9997 21.6663C26.383 21.6663 27.4997 22.783 27.4997 24.1663C27.4997 25.5497 26.383 26.6663 24.9997 26.6663C23.6163 26.6663 22.4997 25.5497 22.4997 24.1663C22.4997 22.783 23.6163 21.6663 24.9997 21.6663ZM25.083 38.333H17.9497C19.5997 37.4997 22.4497 36.6663 24.9997 36.6663C25.183 36.6663 25.383 36.683 25.5663 36.683C26.133 35.4663 27.1163 34.4663 28.2997 33.6663C27.083 33.4497 25.933 33.333 24.9997 33.333C21.0997 33.333 13.333 35.283 13.333 39.1663V41.6663H24.9997V39.1663C24.9997 38.883 25.033 38.5997 25.083 38.333ZM37.4997 34.1663C34.433 34.1663 28.333 35.8497 28.333 39.1663V41.6663H46.6663V39.1663C46.6663 35.8497 40.5663 34.1663 37.4997 34.1663ZM39.5163 31.133C40.783 30.4163 41.6663 29.0663 41.6663 27.4997C41.6663 25.1997 39.7997 23.333 37.4997 23.333C35.1997 23.333 33.333 25.1997 33.333 27.4997C33.333 29.0663 34.2163 30.4163 35.483 31.133C36.083 31.4663 36.7663 31.6663 37.4997 31.6663C38.233 31.6663 38.9163 31.4663 39.5163 31.133Z" fill="#7AA2F8"/>
</svg>
