<svg width="20" height="20" viewBox="0 0 20 20" fill="none" xmlns="http://www.w3.org/2000/svg">
<g clip-path="url(#clip0_2066:134428)">
<path d="M12.7413 2.52332C11.9833 1.29402 11.1828 0.538203 10.6035 0.194336V4.0807H13.5454C13.3103 3.53261 13.0421 3.01109 12.7413 2.52332Z" />
<path d="M18.8471 5.29004H15.2568C15.6359 6.58836 15.8579 7.97644 15.9071 9.39652H19.9997C19.9138 7.94351 19.5195 6.54914 18.8471 5.29004Z" />
<path d="M13.9954 5.29004H10.6035V9.39652H14.6984C14.6454 7.96578 14.4053 6.57383 13.9954 5.29004Z" />
<path d="M1.1525 5.29004C0.480155 6.54914 0.0858202 7.94351 0 9.39652H4.09253C4.14163 7.97648 4.36366 6.5884 4.74276 5.29004H1.1525Z" />
<path d="M4.09253 10.6045H0C0.0858202 12.0575 0.480155 13.4519 1.1525 14.711H4.74276C4.3637 13.4126 4.14171 12.0245 4.09253 10.6045Z" />
<path d="M6.23011 18.1093C5.8123 17.4317 5.45152 16.6961 5.15078 15.918H1.91406C2.21527 16.3277 2.54933 16.7177 2.91566 17.084C4.17902 18.3473 5.7205 19.231 7.40187 19.6794C6.9946 19.2334 6.5971 18.7044 6.23011 18.1093Z" />
<path d="M17.0839 2.91667C15.8205 1.65332 14.279 0.769648 12.5977 0.321289C13.005 0.767187 13.4025 1.29617 13.7695 1.89132C14.1873 2.56894 14.548 3.30445 14.8488 4.08265H18.0855C17.7842 3.67296 17.4502 3.283 17.0839 2.91667Z" />
<path d="M7.25816 2.52336C6.95742 3.01109 6.68914 3.53261 6.4541 4.08077H9.39601V0.194336C8.81672 0.538202 8.01617 1.29402 7.25816 2.52336Z" />
<path d="M2.91566 2.91566C2.54933 3.28199 2.21527 3.67195 1.91406 4.08167H5.15077C5.45152 3.30347 5.8123 2.56796 6.23011 1.89035C6.59706 1.29519 6.9946 0.766171 7.4019 0.320312C5.7205 0.768632 4.17898 1.65238 2.91566 2.91566Z" />
<path d="M10.6035 10.6045V14.711H13.9954C14.4053 13.4272 14.6454 12.0352 14.6984 10.6045H10.6035Z" />
<path d="M15.9071 10.6045C15.858 12.0245 15.6359 13.4126 15.2568 14.711H18.8471C19.5195 13.4518 19.9138 12.0575 19.9996 10.6045H15.9071Z" />
<path d="M14.8488 15.918C14.548 16.6962 14.1873 17.4317 13.7695 18.1093C13.4025 18.7044 13.005 19.2335 12.5977 19.6794C14.279 19.231 15.8205 18.3473 17.0839 17.084C17.4502 16.7177 17.7842 16.3277 18.0855 15.918H14.8488V15.918Z" />
<path d="M6.4541 15.918C6.68914 16.4661 6.95742 16.9876 7.25816 17.4754C8.01617 18.7047 8.81667 19.4605 9.39597 19.8044V15.918H6.4541V15.918Z" />
<path d="M10.6035 15.917V19.8034C11.1828 19.4596 11.9833 18.7037 12.7413 17.4744C13.0421 16.9867 13.3103 16.4652 13.5454 15.917H10.6035Z" />
<path d="M5.30078 10.6045C5.35375 12.0352 5.59387 13.4272 6.00375 14.711H9.39566V10.6045H5.30078Z" />
<path d="M6.00375 5.29004C5.59391 6.57379 5.35375 7.96578 5.30078 9.39652H9.39566V5.29004H6.00375Z" />
</g>
<defs>
<clipPath id="clip0_2066:134428">
<rect width="20" height="20"/>
</clipPath>
</defs>
</svg>
